<mxfile host="app.diagrams.net" modified="2023-04-13T22:28:19.109Z" agent="Mozilla/5.0 (Windows NT 10.0; Win64; x64) AppleWebKit/537.36 (KHTML, like Gecko) Chrome/112.0.0.0 Safari/537.36" version="21.1.7" etag="IYdJ8eI4hQk6eLbGQbmj" type="github">
  <diagram name="Страница 1" id="habwG1WUJH45e8KT0S8-">
    <mxGraphModel>
      <root>
        <mxCell id="0" />
        <mxCell id="1" parent="0" />
      </root>
    </mxGraphModel>
  </diagram>
</mxfile>
